<?xml version="1.0" encoding="UTF-8"?>
<svg width="60px" height="60px" viewBox="0 0 60 60" version="1.1" xmlns="http://www.w3.org/2000/svg" xmlns:xlink="http://www.w3.org/1999/xlink">
    <title>Artboard</title>
    <defs>
        <path d="M26.2661389,11.5698971 L26.3058763,11.6095048 C26.3987755,11.7091954 26.5285221,11.7667023 26.6650129,11.768683 C27.4259738,11.7858346 28.1827558,11.8860753 28.9218003,12.0676091 C29.9578635,12.2930698 30.9633563,12.6405194 31.9171044,13.1026409 C32.3461637,13.3496967 32.8859794,13.2935993 33.254682,12.9636403 C33.6364748,12.676722 33.7689332,12.1650441 33.5740812,11.7298226 C31.660276,5.97374412 26.8253882,1.66246945 20.8738417,0.405005359 C16.662954,-0.535911425 12.2502417,0.176842638 8.55298234,2.39510621 C2.94139385,5.65562653 -0.353709963,11.7845439 0.0302500243,18.2474512 C0.414210011,24.7103584 4.4119767,30.4088323 10.3704084,32.9864611 C10.1109903,32.827283 9.79159121,32.6083196 9.3919674,32.3093934 C3.5577273,27.829424 2.45927257,19.4892403 6.93574303,13.6601382 C7.66759254,12.7117619 8.51995957,11.8621777 9.47144231,11.1327176 C10.6249556,10.2558442 11.9128527,9.57021568 13.2854879,9.10226171 C14.6708008,8.64375492 16.1190333,8.40199443 17.5786322,8.38558626 C18.5110763,8.39192667 19.4404964,8.49207648 20.3527562,8.68451241 C22.5405027,9.1220452 24.5775664,10.1160131 26.2661389,11.5698971 L26.2661389,11.5698971 Z" id="path-1"></path>
        <filter x="-237.6%" y="-212.2%" width="575.3%" height="585.0%" filterUnits="objectBoundingBox" id="filter-2">
            <feOffset dx="0" dy="10" in="SourceAlpha" result="shadowOffsetOuter1"></feOffset>
            <feGaussianBlur stdDeviation="25" in="shadowOffsetOuter1" result="shadowBlurOuter1"></feGaussianBlur>
            <feColorMatrix values="0 0 0 0 0   0 0 0 0 0   0 0 0 0 0  0 0 0 0.1 0" type="matrix" in="shadowBlurOuter1"></feColorMatrix>
        </filter>
        <path d="M21.3248823,8.71848292 C21.9194564,8.85153625 22.5011233,9.03476275 23.0633517,9.26610507 C23.4629154,9.47225534 23.9539542,9.39238627 24.2638484,9.07084033 C24.5973345,8.75693453 24.6934137,8.27195015 24.5039478,7.85887764 C23.7371947,5.96339617 22.5011892,4.2839451 20.9069594,2.97138665 C19.3135348,1.64919383 17.4130254,0.729453406 15.371919,0.292736205 C12.1760769,-0.408230811 8.82651547,0.161320017 6.05981565,1.87614234 C1.91135502,4.36086217 -0.41872564,8.94832543 0.0623915686,13.6838721 C0.543508778,18.4194187 3.7510219,22.4683591 8.31825019,24.1054908 C8.09619572,23.9611838 7.88275902,23.8045695 7.67898566,23.636415 C5.84211587,22.2192803 4.65609371,20.1461092 4.38197096,17.873221 C4.10784821,15.6003329 4.768093,13.3140223 6.21738085,11.5175221 C6.72700576,10.8765046 7.33435145,10.3159702 8.018126,9.85556966 C9.51384757,8.78694317 11.3214879,8.21785181 13.1735093,8.23252332 C13.7098925,8.22323911 14.2457926,8.26900211 14.7724209,8.36906181 C15.3770099,8.48755345 15.9714796,8.65099287 16.5506567,8.85795773 C16.6624291,8.91179364 16.7920068,8.91790645 16.9085548,8.87484152 C18.3440933,8.46195733 19.8625953,8.40819527 21.3248823,8.71848292 Z" id="path-3"></path>
        <filter x="-325.2%" y="-290.4%" width="750.4%" height="763.7%" filterUnits="objectBoundingBox" id="filter-4">
            <feOffset dx="0" dy="10" in="SourceAlpha" result="shadowOffsetOuter1"></feOffset>
            <feGaussianBlur stdDeviation="25" in="shadowOffsetOuter1" result="shadowBlurOuter1"></feGaussianBlur>
            <feColorMatrix values="0 0 0 0 0   0 0 0 0 0   0 0 0 0 0  0 0 0 0.1 0" type="matrix" in="shadowBlurOuter1"></feColorMatrix>
        </filter>
        <path d="M10.5327828,24.1963795 C11.5802954,24.5240997 12.6883858,24.6506805 13.7899988,24.568462 C11.4982968,22.9392802 10.784821,20.0194559 12.0942049,17.6286044 C13.4035888,15.237753 16.361947,14.0585652 19.1256502,14.825903 C19.5310667,14.965578 19.9864797,14.8270433 20.2248949,14.4915174 C20.5037481,14.189278 20.5439214,13.7550977 20.3246899,13.4129667 C19.1616308,11.3587625 17.0454927,9.91822861 14.5891085,9.50854338 C12.6492661,9.14857541 10.6348765,9.48742017 8.95332199,10.4565511 C5.23745972,12.4641788 3.85957004,16.8258623 5.81691039,20.3848022 C6.75470942,22.2073816 8.46193409,23.5872363 10.5327828,24.1963795 Z" id="path-5"></path>
        <filter x="-514.9%" y="-459.8%" width="1129.8%" height="1150.9%" filterUnits="objectBoundingBox" id="filter-6">
            <feOffset dx="0" dy="10" in="SourceAlpha" result="shadowOffsetOuter1"></feOffset>
            <feGaussianBlur stdDeviation="25" in="shadowOffsetOuter1" result="shadowBlurOuter1"></feGaussianBlur>
            <feColorMatrix values="0 0 0 0 0   0 0 0 0 0   0 0 0 0 0  0 0 0 0.1 0" type="matrix" in="shadowBlurOuter1"></feColorMatrix>
        </filter>
    </defs>
    <g id="Artboard" stroke="none" stroke-width="1" fill="none" fill-rule="evenodd">
        <g id="Group-14">
            <circle id="Oval" fill="#FFFFFF" cx="30" cy="30" r="30"></circle>
            <g id="Group-6-Copy" transform="translate(8.737864, 6.593116)">
                <g id="Group-5" transform="translate(0.000000, 5.639894)">
                    <path d="M40.7431622,35.6699876 L38.3048317,38.3863568 C38.0249989,38.6936213 37.5428191,38.5871909 37.2663879,38.3296752 C25.9081064,27.6795203 31.9711017,31.7415307 21.4606588,32.1335254 L32.7869173,19.5202106 C33.0745305,30.3733472 29.6113165,25.1150004 40.5741669,34.6440788 C40.8758915,34.9088586 40.9992175,35.3844736 40.7431622,35.6699876 Z" id="Combined-Shape" fill="#E77C2B"></path>
                    <g id="Group-3">
                        <g id="Path-Copy">
                            <use fill="black" fill-opacity="1" filter="url(#filter-2)" xlink:href="#path-1"></use>
                            <use fill="#2F6FC7" fill-rule="evenodd" xlink:href="#path-1"></use>
                        </g>
                        <g id="Group" transform="translate(4.720589, 9.173987)">
                            <g id="Path-Copy-2">
                                <use fill="black" fill-opacity="1" filter="url(#filter-4)" xlink:href="#path-3"></use>
                                <use fill="#2F6FC7" fill-rule="evenodd" xlink:href="#path-3"></use>
                            </g>
                            <g id="Path-Copy-3">
                                <use fill="black" fill-opacity="1" filter="url(#filter-6)" xlink:href="#path-5"></use>
                                <use fill="#2F6FC7" fill-rule="evenodd" xlink:href="#path-5"></use>
                            </g>
                        </g>
                    </g>
                </g>
                <circle id="Oval" stroke="#FFFFFF" stroke-width="1.5" fill="#D54E48" cx="21.4474846" cy="5.53398058" r="5.53398058"></circle>
            </g>
        </g>
    </g>
</svg>